<svg id="Capa_1" enable-background="new 0 0 512 512" height="512" viewBox="0 0 512 512" width="512" xmlns="http://www.w3.org/2000/svg"><g><g><path d="m406.348 190.268-31.528 14.588c-5.012 2.319-10.956.136-13.275-4.876l-14.588-31.528c-2.319-5.012-.136-10.956 4.876-13.275l31.528-14.588c5.012-2.319 10.956-.136 13.275 4.876l14.588 31.528c2.319 5.012.136 10.956-4.876 13.275z" fill="#ba5d4f"/><path d="m396.637 145.469 14.589 31.528c2.318 5.01.134 10.957-4.876 13.275l-24.84 11.494c5.01-2.318 7.194-8.265 4.876-13.275l-14.589-31.528c-2.322-5.019-8.265-7.194-13.275-4.876l24.84-11.494c5.01-2.318 10.953-.143 13.275 4.876z" fill="#a34f41"/></g><g><circle cx="339.742" cy="148.626" fill="#fcc16d" r="33.224"/><path d="m372.963 148.624c0 18.35-14.87 33.23-33.22 33.23-9.75 0-18.52-4.2-24.6-10.89.43.01.86.02 1.29.02 18.35 0 33.22-14.87 33.22-33.22 0-8.61-3.27-16.44-8.63-22.34 17.76.68 31.94 15.28 31.94 33.2z" fill="#fcb44d"/></g><g><circle cx="216.09" cy="170.847" fill="#fb6a3b" r="38.555"/><path d="m254.642 170.845c0 21.294-17.256 38.562-38.55 38.562-11.314 0-21.492-4.874-28.547-12.637.499.012.998.023 1.497.023 21.294 0 38.55-17.256 38.55-38.55 0-9.992-3.795-19.078-10.015-25.925 20.61.789 37.065 17.732 37.065 38.527z" fill="#fb5532"/></g><g><path d="m290.885 176.191-31.097 15.485c-4.944 2.462-10.947.45-13.409-4.494l-15.485-31.097c-2.462-4.944-.45-10.947 4.494-13.409l31.097-15.485c4.944-2.462 10.947-.45 13.409 4.494l15.485 31.097c2.462 4.943.45 10.947-4.494 13.409z" fill="#c86f5c"/><path d="m279.895 131.688 15.486 31.098c2.461 4.941.447 10.949-4.494 13.409l-24.5 12.2c4.941-2.461 6.955-8.468 4.494-13.409l-15.486-31.098c-2.465-4.95-8.468-6.954-13.409-4.494l24.5-12.2c4.941-2.46 10.944-.456 13.409 4.494z" fill="#ba5d4f"/></g><g><path d="m233.459 243.627h-34.739c-5.523 0-10-4.477-10-10v-34.739c0-5.523 4.477-10 10-10h34.739c5.523 0 10 4.477 10 10v34.739c0 5.523-4.477 10-10 10z" fill="#c86f5c"/><path d="m243.459 198.892v34.74c0 5.52-4.48 10-10 10h-27.37c5.52 0 10-4.48 10-10v-34.74c0-5.53-4.48-10-10-10h27.37c5.52 0 10 4.47 10 10z" fill="#ba5d4f"/></g><g><circle cx="267.298" cy="210.407" fill="#fcc16d" r="33.224"/><path d="m300.519 210.405c0 18.35-14.87 33.23-33.22 33.23-9.75 0-18.52-4.2-24.6-10.89.43.01.86.02 1.29.02 18.35 0 33.22-14.87 33.22-33.22 0-8.61-3.27-16.44-8.63-22.34 17.76.68 31.94 15.281 31.94 33.2z" fill="#fcb44d"/></g><g><path d="m326.15 207.917-37.72-5.703c-5.997-.907-10.123-6.503-9.216-12.5l5.703-37.72c.907-5.997 6.503-10.123 12.5-9.216l37.72 5.703c5.997.907 10.123 6.503 9.216 12.5l-5.703 37.72c-.907 5.997-6.503 10.123-12.5 9.216z" fill="#c86f5c"/><path d="m344.352 160.985-5.703 37.721c-.906 5.994-6.506 10.123-12.5 9.216l-29.719-4.493c5.994.906 11.594-3.223 12.5-9.216l5.703-37.721c.908-6.005-3.223-11.594-9.216-12.5l29.719 4.493c5.994.906 10.124 6.495 9.216 12.5z" fill="#ba5d4f"/></g><g><path d="m419.888 246.983h-34.739c-5.523 0-10-4.477-10-10v-34.739c0-5.523 4.477-10 10-10h34.739c5.523 0 10 4.477 10 10v34.739c0 5.522-4.478 10-10 10z" fill="#c86f5c"/><path d="m429.888 202.247v34.74c0 5.52-4.48 10-10 10h-27.37c5.52 0 10-4.48 10-10v-34.74c0-5.53-4.48-10-10-10h27.37c5.519 0 10 4.47 10 10z" fill="#ba5d4f"/></g><g><path d="m330.697 242.397-30.804 16.06c-4.897 2.553-10.937.653-13.49-4.244l-16.06-30.804c-2.553-4.897-.653-10.937 4.244-13.49l30.804-16.06c4.897-2.553 10.937-.653 13.49 4.244l16.06 30.804c2.554 4.897.654 10.937-4.244 13.49z" fill="#ba5d4f"/><path d="m318.883 198.106 16.06 30.805c2.552 4.895.65 10.938-4.244 13.49l-24.27 12.653c4.895-2.552 6.796-8.596 4.244-13.49l-16.06-30.805c-2.557-4.904-8.596-6.796-13.49-4.244l24.27-12.653c4.895-2.552 10.934-.659 13.49 4.244z" fill="#a34f41"/></g><g><path d="m147.69 240.264-29.523 18.308c-4.694 2.911-10.858 1.465-13.769-3.229l-18.308-29.523c-2.911-4.694-1.465-10.858 3.229-13.769l29.523-18.308c4.694-2.911 10.858-1.465 13.769 3.229l18.308 29.523c2.91 4.694 1.465 10.859-3.229 13.769z" fill="#ba5d4f"/><path d="m132.613 196.975 18.308 29.524c2.909 4.691 1.463 10.86-3.229 13.769l-23.261 14.424c4.691-2.909 6.138-9.077 3.229-13.769l-18.308-29.523c-2.914-4.7-9.077-6.138-13.769-3.229l23.261-14.424c4.691-2.909 10.855-1.471 13.769 3.228z" fill="#a34f41"/></g><g><circle cx="162.024" cy="186.974" fill="#fcc16d" r="33.224"/><path d="m190.133 169.266c9.78 15.526 5.129 36.042-10.397 45.822-8.25 5.197-17.909 6.317-26.619 3.897.369-.221.738-.441 1.102-.671 15.526-9.78 20.183-30.288 10.403-45.814-4.589-7.285-11.529-12.167-19.209-14.303 15.389-8.889 35.169-4.093 44.72 11.069z" fill="#fcb44d"/></g><g><circle cx="354.864" cy="208.045" fill="#fcc16d" r="33.224"/><path d="m388.086 208.043c0 18.35-14.87 33.23-33.22 33.23-9.75 0-18.52-4.2-24.6-10.89.43.01.86.02 1.29.02 18.35 0 33.22-14.87 33.22-33.22 0-8.61-3.27-16.44-8.63-22.34 17.76.68 31.94 15.281 31.94 33.2z" fill="#fcb44d"/></g><g><path d="m175.87 266.576-37.549-12.87c-5.97-2.046-9.15-8.544-7.104-14.514l12.87-37.549c2.046-5.97 8.544-9.15 14.514-7.104l37.549 12.87c5.97 2.046 9.15 8.544 7.104 14.514l-12.87 37.549c-2.047 5.969-8.545 9.15-14.514 7.104z" fill="#c86f5c"/><path d="m203.252 221.927-12.87 37.55c-2.045 5.967-8.547 9.149-14.514 7.104l-29.584-10.14c5.966 2.045 12.469-1.138 14.514-7.104l12.87-37.55c2.049-5.977-1.138-12.469-7.104-14.514l29.584 10.14c5.966 2.045 9.153 8.536 7.104 14.514z" fill="#ba5d4f"/></g><g><path d="m496.427 363.151h-480.854l37.928-115.124c2.702-8.201 10.361-13.742 18.996-13.742h367.007c8.634 0 16.294 5.541 18.996 13.742z" fill="#64b9fc"/><path d="m496.43 363.148h-38.86l-37.93-115.12c-2.7-8.2-10.36-13.74-18.99-13.74h38.85c8.64 0 16.3 5.54 19 13.74z" fill="#31a7fb"/></g><path d="m502 396.597h-492c-5.523 0-10-4.477-10-10v-27.506c0-5.523 4.477-10 10-10h492c5.523 0 10 4.477 10 10v27.506c0 5.523-4.477 10-10 10z" fill="#8dcafc"/><path d="m512 359.088v27.51c0 5.52-4.48 10-10 10h-38.86c5.53 0 10-4.48 10-10v-27.51c0-5.52-4.47-10-10-10h38.86c5.52 0 10 4.48 10 10z" fill="#64b9fc"/><g><g><path d="m318.924 316.42h-125.848c-5.523 0-10-4.477-10-10v-28.991c0-5.523 4.477-10 10-10h125.848c5.523 0 10 4.477 10 10v28.991c0 5.523-4.477 10-10 10z" fill="#ffd597"/><path d="m328.92 277.428v28.99c0 5.53-4.47 10-10 10h-32.66c5.53 0 10-4.47 10-10v-28.99c0-5.52-4.47-10-10-10h32.66c5.53 0 10 4.48 10 10z" fill="#fcc16d"/></g><g><g id="XMLID_201_"><path d="m205.483 299.651c-.013 0-.026 0-.039 0h-.103c-4.267-.021-7.709-3.497-7.689-7.764.021-4.254 3.476-7.689 7.725-7.689h.039l.103.001c4.267.021 7.709 3.497 7.689 7.764-.02 4.254-3.476 7.688-7.725 7.688z" fill="#fca62f"/></g><g id="XMLID_202_"><path d="m306.622 299.651c-.013 0-.025 0-.038 0h-.104c-4.268-.021-7.709-3.497-7.689-7.764.021-4.254 3.476-7.689 7.725-7.689h.038l.104.001c4.268.021 7.709 3.497 7.689 7.764-.021 4.254-3.476 7.688-7.725 7.688z" fill="#fca62f"/></g></g></g></g></svg>